<?xml version="1.0" encoding="UTF-8" standalone="no"?>
<!DOCTYPE svg PUBLIC "-//W3C//DTD SVG 1.1//EN"
 "http://www.w3.org/Graphics/SVG/1.1/DTD/svg11.dtd">
<!-- Generated by graphviz version 2.38.0 (20140413.2041)
 -->
<!-- Title: G Pages: 1 -->
<svg width="231pt" height="1359pt"
 viewBox="0.00 0.00 230.73 1359.00" xmlns="http://www.w3.org/2000/svg" xmlns:xlink="http://www.w3.org/1999/xlink">
<g id="graph0" class="graph" transform="scale(1 1) rotate(0) translate(4 1355)">
<title>G</title>
<polygon fill="white" stroke="none" points="-4,4 -4,-1355 226.732,-1355 226.732,4 -4,4"/>
<!-- 5007336448 -->
<g id="node1" class="node"><title>5007336448</title>
<polygon fill="none" stroke="black" points="0,-1314.5 0,-1350.5 222.732,-1350.5 222.732,-1314.5 0,-1314.5"/>
<text text-anchor="middle" x="111.366" y="-1328.3" font-family="Times,serif" font-size="14.00">convolution2d_input_11: InputLayer</text>
</g>
<!-- 5007338968 -->
<g id="node2" class="node"><title>5007338968</title>
<polygon fill="none" stroke="black" points="20.6069,-1241.5 20.6069,-1277.5 202.125,-1277.5 202.125,-1241.5 20.6069,-1241.5"/>
<text text-anchor="middle" x="111.366" y="-1255.3" font-family="Times,serif" font-size="14.00">(K=32, F=3): Convolution2D</text>
</g>
<!-- 5007336448&#45;&gt;5007338968 -->
<g id="edge1" class="edge"><title>5007336448&#45;&gt;5007338968</title>
<path fill="none" stroke="black" d="M111.366,-1314.31C111.366,-1306.29 111.366,-1296.55 111.366,-1287.57"/>
<polygon fill="black" stroke="black" points="114.866,-1287.53 111.366,-1277.53 107.866,-1287.53 114.866,-1287.53"/>
</g>
<!-- 5007338240 -->
<g id="node3" class="node"><title>5007338240</title>
<polygon fill="none" stroke="black" points="53.3989,-1168.5 53.3989,-1204.5 169.333,-1204.5 169.333,-1168.5 53.3989,-1168.5"/>
<text text-anchor="middle" x="111.366" y="-1182.3" font-family="Times,serif" font-size="14.00">ReLU: Activation</text>
</g>
<!-- 5007338968&#45;&gt;5007338240 -->
<g id="edge2" class="edge"><title>5007338968&#45;&gt;5007338240</title>
<path fill="none" stroke="black" d="M111.366,-1241.31C111.366,-1233.29 111.366,-1223.55 111.366,-1214.57"/>
<polygon fill="black" stroke="black" points="114.866,-1214.53 111.366,-1204.53 107.866,-1214.53 114.866,-1214.53"/>
</g>
<!-- 5007064592 -->
<g id="node4" class="node"><title>5007064592</title>
<polygon fill="none" stroke="black" points="25.6587,-1095.5 25.6587,-1131.5 197.074,-1131.5 197.074,-1095.5 25.6587,-1095.5"/>
<text text-anchor="middle" x="111.366" y="-1109.3" font-family="Times,serif" font-size="14.00">(F=2, S=2): MaxPooling2D</text>
</g>
<!-- 5007338240&#45;&gt;5007064592 -->
<g id="edge3" class="edge"><title>5007338240&#45;&gt;5007064592</title>
<path fill="none" stroke="black" d="M111.366,-1168.31C111.366,-1160.29 111.366,-1150.55 111.366,-1141.57"/>
<polygon fill="black" stroke="black" points="114.866,-1141.53 111.366,-1131.53 107.866,-1141.53 114.866,-1141.53"/>
</g>
<!-- 5003874824 -->
<g id="node5" class="node"><title>5003874824</title>
<polygon fill="none" stroke="black" points="20.6069,-1022.5 20.6069,-1058.5 202.125,-1058.5 202.125,-1022.5 20.6069,-1022.5"/>
<text text-anchor="middle" x="111.366" y="-1036.3" font-family="Times,serif" font-size="14.00">(K=32, F=3): Convolution2D</text>
</g>
<!-- 5007064592&#45;&gt;5003874824 -->
<g id="edge4" class="edge"><title>5007064592&#45;&gt;5003874824</title>
<path fill="none" stroke="black" d="M111.366,-1095.31C111.366,-1087.29 111.366,-1077.55 111.366,-1068.57"/>
<polygon fill="black" stroke="black" points="114.866,-1068.53 111.366,-1058.53 107.866,-1068.53 114.866,-1068.53"/>
</g>
<!-- 5003850416 -->
<g id="node6" class="node"><title>5003850416</title>
<polygon fill="none" stroke="black" points="53.3989,-949.5 53.3989,-985.5 169.333,-985.5 169.333,-949.5 53.3989,-949.5"/>
<text text-anchor="middle" x="111.366" y="-963.3" font-family="Times,serif" font-size="14.00">ReLU: Activation</text>
</g>
<!-- 5003874824&#45;&gt;5003850416 -->
<g id="edge5" class="edge"><title>5003874824&#45;&gt;5003850416</title>
<path fill="none" stroke="black" d="M111.366,-1022.31C111.366,-1014.29 111.366,-1004.55 111.366,-995.569"/>
<polygon fill="black" stroke="black" points="114.866,-995.529 111.366,-985.529 107.866,-995.529 114.866,-995.529"/>
</g>
<!-- 5004117216 -->
<g id="node7" class="node"><title>5004117216</title>
<polygon fill="none" stroke="black" points="25.6587,-876.5 25.6587,-912.5 197.074,-912.5 197.074,-876.5 25.6587,-876.5"/>
<text text-anchor="middle" x="111.366" y="-890.3" font-family="Times,serif" font-size="14.00">(F=2, S=2): MaxPooling2D</text>
</g>
<!-- 5003850416&#45;&gt;5004117216 -->
<g id="edge6" class="edge"><title>5003850416&#45;&gt;5004117216</title>
<path fill="none" stroke="black" d="M111.366,-949.313C111.366,-941.289 111.366,-931.547 111.366,-922.569"/>
<polygon fill="black" stroke="black" points="114.866,-922.529 111.366,-912.529 107.866,-922.529 114.866,-922.529"/>
</g>
<!-- 5004612272 -->
<g id="node8" class="node"><title>5004612272</title>
<polygon fill="none" stroke="black" points="20.6069,-803.5 20.6069,-839.5 202.125,-839.5 202.125,-803.5 20.6069,-803.5"/>
<text text-anchor="middle" x="111.366" y="-817.3" font-family="Times,serif" font-size="14.00">(K=64, F=3): Convolution2D</text>
</g>
<!-- 5004117216&#45;&gt;5004612272 -->
<g id="edge7" class="edge"><title>5004117216&#45;&gt;5004612272</title>
<path fill="none" stroke="black" d="M111.366,-876.313C111.366,-868.289 111.366,-858.547 111.366,-849.569"/>
<polygon fill="black" stroke="black" points="114.866,-849.529 111.366,-839.529 107.866,-849.529 114.866,-849.529"/>
</g>
<!-- 5004612720 -->
<g id="node9" class="node"><title>5004612720</title>
<polygon fill="none" stroke="black" points="53.3989,-730.5 53.3989,-766.5 169.333,-766.5 169.333,-730.5 53.3989,-730.5"/>
<text text-anchor="middle" x="111.366" y="-744.3" font-family="Times,serif" font-size="14.00">ReLU: Activation</text>
</g>
<!-- 5004612272&#45;&gt;5004612720 -->
<g id="edge8" class="edge"><title>5004612272&#45;&gt;5004612720</title>
<path fill="none" stroke="black" d="M111.366,-803.313C111.366,-795.289 111.366,-785.547 111.366,-776.569"/>
<polygon fill="black" stroke="black" points="114.866,-776.529 111.366,-766.529 107.866,-776.529 114.866,-776.529"/>
</g>
<!-- 5008518168 -->
<g id="node10" class="node"><title>5008518168</title>
<polygon fill="none" stroke="black" points="25.6587,-657.5 25.6587,-693.5 197.074,-693.5 197.074,-657.5 25.6587,-657.5"/>
<text text-anchor="middle" x="111.366" y="-671.3" font-family="Times,serif" font-size="14.00">(F=2, S=2): MaxPooling2D</text>
</g>
<!-- 5004612720&#45;&gt;5008518168 -->
<g id="edge9" class="edge"><title>5004612720&#45;&gt;5008518168</title>
<path fill="none" stroke="black" d="M111.366,-730.313C111.366,-722.289 111.366,-712.547 111.366,-703.569"/>
<polygon fill="black" stroke="black" points="114.866,-703.529 111.366,-693.529 107.866,-703.529 114.866,-703.529"/>
</g>
<!-- 5008561936 -->
<g id="node11" class="node"><title>5008561936</title>
<polygon fill="none" stroke="black" points="80.23,-584.5 80.23,-620.5 142.502,-620.5 142.502,-584.5 80.23,-584.5"/>
<text text-anchor="middle" x="111.366" y="-598.3" font-family="Times,serif" font-size="14.00">: Flatten</text>
</g>
<!-- 5008518168&#45;&gt;5008561936 -->
<g id="edge10" class="edge"><title>5008518168&#45;&gt;5008561936</title>
<path fill="none" stroke="black" d="M111.366,-657.313C111.366,-649.289 111.366,-639.547 111.366,-630.569"/>
<polygon fill="black" stroke="black" points="114.866,-630.529 111.366,-620.529 107.866,-630.529 114.866,-630.529"/>
</g>
<!-- 5008562440 -->
<g id="node12" class="node"><title>5008562440</title>
<polygon fill="none" stroke="black" points="66.1753,-511.5 66.1753,-547.5 156.557,-547.5 156.557,-511.5 66.1753,-511.5"/>
<text text-anchor="middle" x="111.366" y="-525.3" font-family="Times,serif" font-size="14.00">H=64: Dense</text>
</g>
<!-- 5008561936&#45;&gt;5008562440 -->
<g id="edge11" class="edge"><title>5008561936&#45;&gt;5008562440</title>
<path fill="none" stroke="black" d="M111.366,-584.313C111.366,-576.289 111.366,-566.547 111.366,-557.569"/>
<polygon fill="black" stroke="black" points="114.866,-557.529 111.366,-547.529 107.866,-557.529 114.866,-557.529"/>
</g>
<!-- 4989838896 -->
<g id="node13" class="node"><title>4989838896</title>
<polygon fill="none" stroke="black" points="53.3989,-438.5 53.3989,-474.5 169.333,-474.5 169.333,-438.5 53.3989,-438.5"/>
<text text-anchor="middle" x="111.366" y="-452.3" font-family="Times,serif" font-size="14.00">ReLU: Activation</text>
</g>
<!-- 5008562440&#45;&gt;4989838896 -->
<g id="edge12" class="edge"><title>5008562440&#45;&gt;4989838896</title>
<path fill="none" stroke="black" d="M111.366,-511.313C111.366,-503.289 111.366,-493.547 111.366,-484.569"/>
<polygon fill="black" stroke="black" points="114.866,-484.529 111.366,-474.529 107.866,-484.529 114.866,-484.529"/>
</g>
<!-- 4989841192 -->
<g id="node14" class="node"><title>4989841192</title>
<polygon fill="none" stroke="black" points="60.1426,-365.5 60.1426,-401.5 162.59,-401.5 162.59,-365.5 60.1426,-365.5"/>
<text text-anchor="middle" x="111.366" y="-379.3" font-family="Times,serif" font-size="14.00">p=0.5: Dropout</text>
</g>
<!-- 4989838896&#45;&gt;4989841192 -->
<g id="edge13" class="edge"><title>4989838896&#45;&gt;4989841192</title>
<path fill="none" stroke="black" d="M111.366,-438.313C111.366,-430.289 111.366,-420.547 111.366,-411.569"/>
<polygon fill="black" stroke="black" points="114.866,-411.529 111.366,-401.529 107.866,-411.529 114.866,-411.529"/>
</g>
<!-- 4989889056 -->
<g id="node15" class="node"><title>4989889056</title>
<polygon fill="none" stroke="black" points="66.1753,-292.5 66.1753,-328.5 156.557,-328.5 156.557,-292.5 66.1753,-292.5"/>
<text text-anchor="middle" x="111.366" y="-306.3" font-family="Times,serif" font-size="14.00">H=64: Dense</text>
</g>
<!-- 4989841192&#45;&gt;4989889056 -->
<g id="edge14" class="edge"><title>4989841192&#45;&gt;4989889056</title>
<path fill="none" stroke="black" d="M111.366,-365.313C111.366,-357.289 111.366,-347.547 111.366,-338.569"/>
<polygon fill="black" stroke="black" points="114.866,-338.529 111.366,-328.529 107.866,-338.529 114.866,-338.529"/>
</g>
<!-- 5004128096 -->
<g id="node16" class="node"><title>5004128096</title>
<polygon fill="none" stroke="black" points="53.3989,-219.5 53.3989,-255.5 169.333,-255.5 169.333,-219.5 53.3989,-219.5"/>
<text text-anchor="middle" x="111.366" y="-233.3" font-family="Times,serif" font-size="14.00">ReLU: Activation</text>
</g>
<!-- 4989889056&#45;&gt;5004128096 -->
<g id="edge15" class="edge"><title>4989889056&#45;&gt;5004128096</title>
<path fill="none" stroke="black" d="M111.366,-292.313C111.366,-284.289 111.366,-274.547 111.366,-265.569"/>
<polygon fill="black" stroke="black" points="114.866,-265.529 111.366,-255.529 107.866,-265.529 114.866,-265.529"/>
</g>
<!-- 5003999384 -->
<g id="node17" class="node"><title>5003999384</title>
<polygon fill="none" stroke="black" points="60.1426,-146.5 60.1426,-182.5 162.59,-182.5 162.59,-146.5 60.1426,-146.5"/>
<text text-anchor="middle" x="111.366" y="-160.3" font-family="Times,serif" font-size="14.00">p=0.5: Dropout</text>
</g>
<!-- 5004128096&#45;&gt;5003999384 -->
<g id="edge16" class="edge"><title>5004128096&#45;&gt;5003999384</title>
<path fill="none" stroke="black" d="M111.366,-219.313C111.366,-211.289 111.366,-201.547 111.366,-192.569"/>
<polygon fill="black" stroke="black" points="114.866,-192.529 111.366,-182.529 107.866,-192.529 114.866,-192.529"/>
</g>
<!-- 5004194704 -->
<g id="node18" class="node"><title>5004194704</title>
<polygon fill="none" stroke="black" points="66.5615,-73.5 66.5615,-109.5 156.171,-109.5 156.171,-73.5 66.5615,-73.5"/>
<text text-anchor="middle" x="111.366" y="-87.3" font-family="Times,serif" font-size="14.00">C=10: Dense</text>
</g>
<!-- 5003999384&#45;&gt;5004194704 -->
<g id="edge17" class="edge"><title>5003999384&#45;&gt;5004194704</title>
<path fill="none" stroke="black" d="M111.366,-146.313C111.366,-138.289 111.366,-128.547 111.366,-119.569"/>
<polygon fill="black" stroke="black" points="114.866,-119.529 111.366,-109.529 107.866,-119.529 114.866,-119.529"/>
</g>
<!-- 5009258424 -->
<g id="node19" class="node"><title>5009258424</title>
<polygon fill="none" stroke="black" points="46.7852,-0.5 46.7852,-36.5 175.947,-36.5 175.947,-0.5 46.7852,-0.5"/>
<text text-anchor="middle" x="111.366" y="-14.3" font-family="Times,serif" font-size="14.00">Softmax: Activation</text>
</g>
<!-- 5004194704&#45;&gt;5009258424 -->
<g id="edge18" class="edge"><title>5004194704&#45;&gt;5009258424</title>
<path fill="none" stroke="black" d="M111.366,-73.3129C111.366,-65.2895 111.366,-55.5475 111.366,-46.5691"/>
<polygon fill="black" stroke="black" points="114.866,-46.5288 111.366,-36.5288 107.866,-46.5289 114.866,-46.5288"/>
</g>
</g>
</svg>
